<svg xmlns="http://www.w3.org/2000/svg" viewBox="0 -960 960 960" width="960" height="960">
  <!-- Self-contained: dark background so icon works on light and dark launchers + dark mode -->
  <rect width="960" height="960" y="-960" rx="192" ry="192" fill="#1a1d24"/>
  <!-- Symbol (same shape as before, warm gold for contrast) -->
  <path fill="#e5c65a" d="M200-120q-33 0-56.5-23.5T120-200v-560q0-33 23.5-56.5T200-840h560q33 0 56.5 23.5T840-760v560q0 33-23.5 56.5T760-120H200Zm0-80h130v-180h-10q-17 0-28.5-11.5T280-420v-340h-80v560Zm430 0h130v-560h-80v340q0 17-11.5 28.5T640-380h-10v180Zm-240 0h180v-180h-10q-17 0-28.5-11.5T520-420v-340h-80v340q0 17-11.5 28.5T400-380h-10v180Z"/>
</svg>
